<svg xmlns="http://www.w3.org/2000/svg" width="600" height="450" viewBox="0 0 600 450">
  <rect width="600" height="450" fill="#1f242e"/>
  <g transform="translate(300 215)">
    <path d="M-150 40c0-90 60-150 150-150S150-50 150 40H-150z" fill="#2f7bf0"/>
    <path d="M-150 40c0 18 6 30 150 30S150 58 150 40c0-6-4-10-10-10H-140c-6 0-10 4-10 10z" fill="#234e96"/>
    <path d="M120 40c40 2 90 14 110 40 6 8-2 16-14 14-60-12-110-18-146-18l50-36z" fill="#1a3a73"/>
    <text x="0" y="0" font-family="Oswald, sans-serif" font-size="34" font-weight="700" fill="#ffffff" text-anchor="middle" dominant-baseline="middle" letter-spacing="2">FIX ORLANDO</text>
  </g>
  <text x="300" y="410" font-family="Oswald, sans-serif" font-size="18" fill="#9aa4b2" text-anchor="middle" letter-spacing="3">PRODUCT PHOTO — REPLACE</text>
</svg>
